<mxfile host="app.diagrams.net" agent="Mozilla/5.0 (Windows NT 10.0; Win64; x64) AppleWebKit/537.36 (KHTML, like Gecko) Chrome/133.0.0.0 Safari/537.36" version="26.0.12">
  <diagram name="Page-1" id="JOUOWs8nqEL91lBXQO5n">
    <mxGraphModel dx="3291" dy="2134" grid="0" gridSize="10" guides="1" tooltips="1" connect="1" arrows="1" fold="1" page="0" pageScale="1" pageWidth="850" pageHeight="1100" math="0" shadow="0">
      <root>
        <mxCell id="0" />
        <mxCell id="1" parent="0" />
        <mxCell id="icVjcEEq79SFZXa9OlHf-2" value="" style="rounded=0;whiteSpace=wrap;html=1;movable=1;resizable=1;rotatable=1;deletable=1;editable=1;locked=0;connectable=1;" parent="1" vertex="1">
          <mxGeometry x="-62" y="-45" width="1958" height="1159" as="geometry" />
        </mxCell>
        <mxCell id="icVjcEEq79SFZXa9OlHf-3" value="TinyUrl" style="text;html=1;align=center;verticalAlign=middle;resizable=0;points=[];autosize=1;fontSize=16;fillColor=#ffe6cc;strokeColor=#d79b00;" parent="1" vertex="1">
          <mxGeometry x="290" y="-45" width="68" height="31" as="geometry" />
        </mxCell>
        <mxCell id="vlmSqmFaSl1RdVKzeSGp-13" value="Capacity estimation" style="swimlane;fontStyle=0;childLayout=stackLayout;horizontal=1;startSize=26;fillColor=#ffe6cc;horizontalStack=0;resizeParent=1;resizeParentMax=0;resizeLast=0;collapsible=1;marginBottom=0;whiteSpace=wrap;html=1;strokeColor=#d79b00;" parent="1" vertex="1">
          <mxGeometry x="-39" y="23" width="291" height="130" as="geometry">
            <mxRectangle x="-39" y="23" width="140" height="26" as="alternateBounds" />
          </mxGeometry>
        </mxCell>
        <mxCell id="vlmSqmFaSl1RdVKzeSGp-14" value="1. Average url generation per day - 1M" style="text;strokeColor=none;fillColor=none;align=left;verticalAlign=top;spacingLeft=4;spacingRight=4;overflow=hidden;rotatable=0;points=[[0,0.5],[1,0.5]];portConstraint=eastwest;whiteSpace=wrap;html=1;" parent="vlmSqmFaSl1RdVKzeSGp-13" vertex="1">
          <mxGeometry y="26" width="291" height="26" as="geometry" />
        </mxCell>
        <mxCell id="vlmSqmFaSl1RdVKzeSGp-15" value="2. Write to read ratio - 1 : 100" style="text;strokeColor=none;fillColor=none;align=left;verticalAlign=top;spacingLeft=4;spacingRight=4;overflow=hidden;rotatable=0;points=[[0,0.5],[1,0.5]];portConstraint=eastwest;whiteSpace=wrap;html=1;" parent="vlmSqmFaSl1RdVKzeSGp-13" vertex="1">
          <mxGeometry y="52" width="291" height="26" as="geometry" />
        </mxCell>
        <mxCell id="vlmSqmFaSl1RdVKzeSGp-16" value="3. Peak traffic - 10x of average&lt;div&gt;&lt;br&gt;&lt;/div&gt;" style="text;strokeColor=none;fillColor=none;align=left;verticalAlign=top;spacingLeft=4;spacingRight=4;overflow=hidden;rotatable=0;points=[[0,0.5],[1,0.5]];portConstraint=eastwest;whiteSpace=wrap;html=1;" parent="vlmSqmFaSl1RdVKzeSGp-13" vertex="1">
          <mxGeometry y="78" width="291" height="26" as="geometry" />
        </mxCell>
        <mxCell id="vlmSqmFaSl1RdVKzeSGp-18" value="4. Average URL length - 100 char" style="text;strokeColor=none;fillColor=none;align=left;verticalAlign=top;spacingLeft=4;spacingRight=4;overflow=hidden;rotatable=0;points=[[0,0.5],[1,0.5]];portConstraint=eastwest;whiteSpace=wrap;html=1;" parent="vlmSqmFaSl1RdVKzeSGp-13" vertex="1">
          <mxGeometry y="104" width="291" height="26" as="geometry" />
        </mxCell>
        <mxCell id="vlmSqmFaSl1RdVKzeSGp-24" value="Throughput requirements" style="swimlane;fontStyle=0;childLayout=stackLayout;horizontal=1;startSize=26;fillColor=#ffe6cc;horizontalStack=0;resizeParent=1;resizeParentMax=0;resizeLast=0;collapsible=1;marginBottom=0;whiteSpace=wrap;html=1;strokeColor=#d79b00;" parent="1" vertex="1">
          <mxGeometry x="-39" y="178" width="291" height="144" as="geometry" />
        </mxCell>
        <mxCell id="vlmSqmFaSl1RdVKzeSGp-25" value="1. Average writes per second (wps) - 1M / seconds in 24hr ~ 12&amp;nbsp;" style="text;strokeColor=none;fillColor=none;align=left;verticalAlign=top;spacingLeft=4;spacingRight=4;overflow=hidden;rotatable=0;points=[[0,0.5],[1,0.5]];portConstraint=eastwest;whiteSpace=wrap;html=1;" parent="vlmSqmFaSl1RdVKzeSGp-24" vertex="1">
          <mxGeometry y="26" width="291" height="40" as="geometry" />
        </mxCell>
        <mxCell id="vlmSqmFaSl1RdVKzeSGp-26" value="&amp;nbsp;2. Average reads - 1200 ops (as read are 100x)&amp;nbsp;" style="text;strokeColor=none;fillColor=none;align=left;verticalAlign=top;spacingLeft=4;spacingRight=4;overflow=hidden;rotatable=0;points=[[0,0.5],[1,0.5]];portConstraint=eastwest;whiteSpace=wrap;html=1;" parent="vlmSqmFaSl1RdVKzeSGp-24" vertex="1">
          <mxGeometry y="66" width="291" height="26" as="geometry" />
        </mxCell>
        <mxCell id="vlmSqmFaSl1RdVKzeSGp-27" value="3. Peak wps - 120&lt;div&gt;&lt;br&gt;&lt;/div&gt;" style="text;strokeColor=none;fillColor=none;align=left;verticalAlign=top;spacingLeft=4;spacingRight=4;overflow=hidden;rotatable=0;points=[[0,0.5],[1,0.5]];portConstraint=eastwest;whiteSpace=wrap;html=1;" parent="vlmSqmFaSl1RdVKzeSGp-24" vertex="1">
          <mxGeometry y="92" width="291" height="26" as="geometry" />
        </mxCell>
        <mxCell id="vlmSqmFaSl1RdVKzeSGp-28" value="4. Peak read per second - 12000" style="text;strokeColor=none;fillColor=none;align=left;verticalAlign=top;spacingLeft=4;spacingRight=4;overflow=hidden;rotatable=0;points=[[0,0.5],[1,0.5]];portConstraint=eastwest;whiteSpace=wrap;html=1;" parent="vlmSqmFaSl1RdVKzeSGp-24" vertex="1">
          <mxGeometry y="118" width="291" height="26" as="geometry" />
        </mxCell>
        <mxCell id="vlmSqmFaSl1RdVKzeSGp-29" value="Storage estimation" style="swimlane;fontStyle=0;childLayout=stackLayout;horizontal=1;startSize=26;fillColor=#ffe6cc;horizontalStack=0;resizeParent=1;resizeParentMax=0;resizeLast=0;collapsible=1;marginBottom=0;whiteSpace=wrap;html=1;strokeColor=#d79b00;" parent="1" vertex="1">
          <mxGeometry x="-39" y="339" width="291" height="82" as="geometry" />
        </mxCell>
        <mxCell id="vlmSqmFaSl1RdVKzeSGp-30" value="1. Single URL - 130 KB" style="text;strokeColor=none;fillColor=none;align=left;verticalAlign=top;spacingLeft=4;spacingRight=4;overflow=hidden;rotatable=0;points=[[0,0.5],[1,0.5]];portConstraint=eastwest;whiteSpace=wrap;html=1;" parent="vlmSqmFaSl1RdVKzeSGp-29" vertex="1">
          <mxGeometry y="26" width="291" height="30" as="geometry" />
        </mxCell>
        <mxCell id="vlmSqmFaSl1RdVKzeSGp-31" value="2. Data per year - 1M*130KB*365 - 50GB" style="text;strokeColor=none;fillColor=none;align=left;verticalAlign=top;spacingLeft=4;spacingRight=4;overflow=hidden;rotatable=0;points=[[0,0.5],[1,0.5]];portConstraint=eastwest;whiteSpace=wrap;html=1;" parent="vlmSqmFaSl1RdVKzeSGp-29" vertex="1">
          <mxGeometry y="56" width="291" height="26" as="geometry" />
        </mxCell>
        <mxCell id="vlmSqmFaSl1RdVKzeSGp-35" value="Url storage entity (130 KB approx)" style="swimlane;fontStyle=0;childLayout=stackLayout;horizontal=1;startSize=26;fillColor=#ffe6cc;horizontalStack=0;resizeParent=1;resizeParentMax=0;resizeLast=0;collapsible=1;marginBottom=0;whiteSpace=wrap;html=1;strokeColor=#d79b00;" parent="1" vertex="1">
          <mxGeometry x="316" y="358" width="443" height="171" as="geometry">
            <mxRectangle x="468" y="357" width="216" height="26" as="alternateBounds" />
          </mxGeometry>
        </mxCell>
        <mxCell id="vlmSqmFaSl1RdVKzeSGp-36" value="1.&amp;nbsp; realUrl: 100 byte" style="text;strokeColor=none;fillColor=none;align=left;verticalAlign=top;spacingLeft=4;spacingRight=4;overflow=hidden;rotatable=0;points=[[0,0.5],[1,0.5]];portConstraint=eastwest;whiteSpace=wrap;html=1;" parent="vlmSqmFaSl1RdVKzeSGp-35" vertex="1">
          <mxGeometry y="26" width="443" height="26" as="geometry" />
        </mxCell>
        <mxCell id="vlmSqmFaSl1RdVKzeSGp-37" value="2. newUrl : 8 byte (considering around 2 trillion unique urls possible)" style="text;strokeColor=none;fillColor=none;align=left;verticalAlign=top;spacingLeft=4;spacingRight=4;overflow=hidden;rotatable=0;points=[[0,0.5],[1,0.5]];portConstraint=eastwest;whiteSpace=wrap;html=1;" parent="vlmSqmFaSl1RdVKzeSGp-35" vertex="1">
          <mxGeometry y="52" width="443" height="26" as="geometry" />
        </mxCell>
        <mxCell id="vlmSqmFaSl1RdVKzeSGp-38" value="3. Clicks - number 4 byte - (considering clicks will be in million for single url)" style="text;strokeColor=none;fillColor=none;align=left;verticalAlign=top;spacingLeft=4;spacingRight=4;overflow=hidden;rotatable=0;points=[[0,0.5],[1,0.5]];portConstraint=eastwest;whiteSpace=wrap;html=1;" parent="vlmSqmFaSl1RdVKzeSGp-35" vertex="1">
          <mxGeometry y="78" width="443" height="31" as="geometry" />
        </mxCell>
        <mxCell id="vlmSqmFaSl1RdVKzeSGp-40" value="4. Creation timestamp - 8 byte" style="text;strokeColor=none;fillColor=none;align=left;verticalAlign=top;spacingLeft=4;spacingRight=4;overflow=hidden;rotatable=0;points=[[0,0.5],[1,0.5]];portConstraint=eastwest;whiteSpace=wrap;html=1;" parent="vlmSqmFaSl1RdVKzeSGp-35" vertex="1">
          <mxGeometry y="109" width="443" height="31" as="geometry" />
        </mxCell>
        <mxCell id="vlmSqmFaSl1RdVKzeSGp-42" value="4. Expiration timestamp - 8 byte" style="text;strokeColor=none;fillColor=none;align=left;verticalAlign=top;spacingLeft=4;spacingRight=4;overflow=hidden;rotatable=0;points=[[0,0.5],[1,0.5]];portConstraint=eastwest;whiteSpace=wrap;html=1;" parent="vlmSqmFaSl1RdVKzeSGp-35" vertex="1">
          <mxGeometry y="140" width="443" height="31" as="geometry" />
        </mxCell>
        <mxCell id="vlmSqmFaSl1RdVKzeSGp-43" style="edgeStyle=orthogonalEdgeStyle;rounded=0;orthogonalLoop=1;jettySize=auto;html=1;entryX=0.002;entryY=0.129;entryDx=0;entryDy=0;entryPerimeter=0;" parent="1" source="vlmSqmFaSl1RdVKzeSGp-30" target="vlmSqmFaSl1RdVKzeSGp-35" edge="1">
          <mxGeometry relative="1" as="geometry" />
        </mxCell>
        <mxCell id="vlmSqmFaSl1RdVKzeSGp-44" value="Caching estimation" style="swimlane;fontStyle=0;childLayout=stackLayout;horizontal=1;startSize=26;fillColor=#ffe6cc;horizontalStack=0;resizeParent=1;resizeParentMax=0;resizeLast=0;collapsible=1;marginBottom=0;whiteSpace=wrap;html=1;strokeColor=#d79b00;" parent="1" vertex="1">
          <mxGeometry x="-39" y="446" width="291" height="177" as="geometry" />
        </mxCell>
        <mxCell id="vlmSqmFaSl1RdVKzeSGp-45" value="1. Since our system is read heavy so we can cache hot URLs&amp;nbsp;&lt;div&gt;2. Let&#39;s follow the 80-20 rule (where 20% of URLs create 80% of traffic). and we can cache hot URLs.&lt;/div&gt;&lt;div&gt;3. so cache memory needed - 100M*0.2*130 = &lt;b&gt;2.6 GB&lt;/b&gt;&lt;/div&gt;&lt;div&gt;4. Now if we suppose over cache has 90% hit then our DB will get only 10% of calls i.e. - 1200*0.1 = 120 rps&amp;nbsp;&lt;/div&gt;" style="text;strokeColor=none;fillColor=none;align=left;verticalAlign=top;spacingLeft=4;spacingRight=4;overflow=hidden;rotatable=0;points=[[0,0.5],[1,0.5]];portConstraint=eastwest;whiteSpace=wrap;html=1;" parent="vlmSqmFaSl1RdVKzeSGp-44" vertex="1">
          <mxGeometry y="26" width="291" height="151" as="geometry" />
        </mxCell>
        <mxCell id="NySGVXEizBdGzSNX3ihA-1" value="Infra sizing (need more clarity)" style="swimlane;fontStyle=0;childLayout=stackLayout;horizontal=1;startSize=26;fillColor=#ffe6cc;horizontalStack=0;resizeParent=1;resizeParentMax=0;resizeLast=0;collapsible=1;marginBottom=0;whiteSpace=wrap;html=1;strokeColor=#d79b00;" parent="1" vertex="1">
          <mxGeometry x="-39" y="638" width="291" height="102" as="geometry" />
        </mxCell>
        <mxCell id="NySGVXEizBdGzSNX3ihA-2" value="1. Can take 3 to 4 servers behind a load balancer, each capable of handling 200 to 300 rps." style="text;strokeColor=none;fillColor=none;align=left;verticalAlign=top;spacingLeft=4;spacingRight=4;overflow=hidden;rotatable=0;points=[[0,0.5],[1,0.5]];portConstraint=eastwest;whiteSpace=wrap;html=1;" parent="NySGVXEizBdGzSNX3ihA-1" vertex="1">
          <mxGeometry y="26" width="291" height="38" as="geometry" />
        </mxCell>
        <mxCell id="NySGVXEizBdGzSNX3ihA-3" value="2. A DB server with 3 to 4 nodes and also a cache with 10 to 20 nodes." style="text;strokeColor=none;fillColor=none;align=left;verticalAlign=top;spacingLeft=4;spacingRight=4;overflow=hidden;rotatable=0;points=[[0,0.5],[1,0.5]];portConstraint=eastwest;whiteSpace=wrap;html=1;" parent="NySGVXEizBdGzSNX3ihA-1" vertex="1">
          <mxGeometry y="64" width="291" height="38" as="geometry" />
        </mxCell>
        <mxCell id="NySGVXEizBdGzSNX3ihA-90" value="Database Design" style="swimlane;fontStyle=0;childLayout=stackLayout;horizontal=1;startSize=26;fillColor=#ffe6cc;horizontalStack=0;resizeParent=1;resizeParentMax=0;resizeLast=0;collapsible=1;marginBottom=0;whiteSpace=wrap;html=1;strokeColor=#d79b00;" parent="1" vertex="1">
          <mxGeometry x="-39" y="759" width="291" height="122" as="geometry" />
        </mxCell>
        <mxCell id="NySGVXEizBdGzSNX3ihA-91" value="1. 1. We need high read/write throughput with billions of records store so NoSQL will be a good choice because&lt;div&gt;&amp;nbsp;- Good availability and scalability&lt;/div&gt;&lt;div&gt;&amp;nbsp;- not needed expensive joins&lt;/div&gt;&lt;div&gt;&amp;nbsp;- need to store key-value data only&lt;/div&gt;" style="text;strokeColor=none;fillColor=none;align=left;verticalAlign=top;spacingLeft=4;spacingRight=4;overflow=hidden;rotatable=0;points=[[0,0.5],[1,0.5]];portConstraint=eastwest;whiteSpace=wrap;html=1;" parent="NySGVXEizBdGzSNX3ihA-90" vertex="1">
          <mxGeometry y="26" width="291" height="96" as="geometry" />
        </mxCell>
        <mxCell id="NySGVXEizBdGzSNX3ihA-94" value="" style="endArrow=none;html=1;rounded=0;entryX=0.5;entryY=0;entryDx=0;entryDy=0;exitX=0.5;exitY=1;exitDx=0;exitDy=0;" parent="1" source="icVjcEEq79SFZXa9OlHf-2" target="icVjcEEq79SFZXa9OlHf-2" edge="1">
          <mxGeometry width="50" height="50" relative="1" as="geometry">
            <mxPoint x="1007" y="302" as="sourcePoint" />
            <mxPoint x="1057" y="252" as="targetPoint" />
          </mxGeometry>
        </mxCell>
      </root>
    </mxGraphModel>
  </diagram>
</mxfile>
